# Alias OBJ Model File
# Exported from SketchUp, (c) 2000-2012 Trimble Navigation Limited
# File units = meters

mtllib mensa.mtl

g Mesh1 Model

usemtl Cladding_Siding_White
v 179.322 29.6536 -72.7994
vt 185.788 75.4242
vn 0 1 -0
v 59.8594 29.6536 -111.14
vt 62.0176 115.147
v 59.8594 29.6536 -72.7994
vt 62.0176 75.4242
f 1/1/1 2/2/1 3/3/1

v 179.322 29.6536 -111.14
vt 185.788 115.147
f 2/2/1 1/1/1 4/4/1

usemtl FrontColor
vt 2866.12 1167.46
vn 1 0 -0
v 179.322 0 -111.14
vt 4375.6 0
vt 4375.6 1167.46
f 1/5/2 5/6/2 4/7/2

v 179.322 0 -72.7994
vt 2866.12 0
f 5/6/2 1/5/2 6/8/2

usemtl Cladding_Siding_White
vt 185.788 30.7227
vn 0 0 1
v 166.281 0 -72.7994
vt 172.277 0
vt 185.788 0
f 1/9/3 7/10/3 6/11/3

v 166.281 7.80565 -72.7994
vt 172.277 8.08708
f 7/10/3 1/9/3 8/12/3

v 166.281 9.60392 -72.7994
vt 172.277 9.95019
f 8/12/3 1/9/3 9/13/3

v 166.281 22.3762 -72.7994
vt 172.277 23.183
f 9/13/3 1/9/3 10/14/3

v 103.41 22.3762 -72.7994
vt 107.138 23.183
f 10/14/3 1/9/3 11/15/3

vt 62.0176 30.7227
f 3/16/3 11/15/3 1/9/3

v 103.41 9.60392 -72.7994
vt 107.138 9.95019
f 3/16/3 12/17/3 11/15/3

v 103.41 7.80565 -72.7994
vt 107.138 8.08708
f 3/16/3 13/18/3 12/17/3

v 59.8594 0 -72.7994
vt 62.0176 0
f 14/19/3 13/18/3 3/16/3

v 103.41 0 -72.7994
vt 107.138 0
f 13/18/3 14/19/3 15/20/3

usemtl FrontColor
vt -2356.67 2866.12
vn 2.90687e-018 -1 -1.21598e-017
v 63.8736 0 -73.527
vt -2514.71 2894.76
vt -4071.24 2866.12
f 14/21/4 16/22/4 15/23/4

v 59.8594 0 -73.527
vt -2356.67 2894.76
f 16/22/4 14/21/4 17/24/4

vt -2866.12 0
vn -1 0 -0
vt -4375.6 1167.46
vt -2894.76 0
f 14/25/5 2/26/5 17/27/5

vt -2866.12 1167.46
f 2/26/5 14/25/5 3/28/5

v 59.8594 0 -74.247
vt -2923.11 0
f 17/27/5 2/26/5 18/29/5

v 59.8594 0 -84.5777
vt -3329.83 0
f 18/29/5 2/26/5 19/30/5

v 59.8594 0 -111.14
vt -4375.6 0
f 19/30/5 2/26/5 20/31/5

usemtl _Concrete_Block_8x8_Gray_1
vt -49.0973 24.3222
vn 0 0 -1
vt -147.082 0
vt -49.0973 0
f 2/32/6 5/33/6 20/34/6

vt -147.082 24.3222
f 5/33/6 2/32/6 4/35/6

usemtl FrontColor
vt -7059.93 4375.6
vt -2356.67 3329.83
vt -2356.67 4375.6
f 5/36/4 19/37/4 20/38/4

v 63.8736 0 -84.5777
vt -2514.71 3329.83
f 19/37/4 5/36/4 21/39/4

v 64.1707 0 -84.5879
vt -2526.41 3330.23
f 21/39/4 5/36/4 22/40/4

v 64.1836 0 -84.1726
vt -2526.91 3313.88
f 22/40/4 5/36/4 23/41/4

v 64.1836 -1.44382e-015 -73.757
vt -2526.91 2903.82
f 23/41/4 5/36/4 24/42/4

v 64.1836 -1.44382e-015 -73.527
vt -2526.91 2894.76
f 24/42/4 5/36/4 25/43/4

v 103.41 0 -84.1176
vt -4071.24 3311.72
f 25/43/4 5/36/4 26/44/4

v 110.91 0 -84.1176
vt -4366.54 3311.72
f 26/44/4 5/36/4 27/45/4

v 111.676 0 -84.1176
vt -4396.68 3311.72
f 27/45/4 5/36/4 28/46/4

v 124.127 0 -84.1176
vt -4886.88 3311.72
f 28/46/4 5/36/4 29/47/4

v 124.882 0 -84.1176
vt -4916.61 3311.72
f 29/47/4 5/36/4 30/48/4

v 140.523 0 -84.1176
vt -5532.4 3311.72
f 30/48/4 5/36/4 31/49/4

v 141.193 0 -84.1176
vt -5558.78 3311.72
f 31/49/4 5/36/4 32/50/4

v 156.507 0 -84.1176
vt -6161.7 3311.72
f 32/50/4 5/36/4 33/51/4

v 157.192 0 -84.1176
vt -6188.65 3311.72
f 33/51/4 5/36/4 34/52/4

v 166.281 0 -84.1176
vt -6546.51 3311.72
f 34/52/4 5/36/4 35/53/4

vt -6546.51 2866.12
f 35/53/4 5/36/4 7/54/4

vt -7059.93 2866.12
f 7/54/4 5/36/4 6/55/4

usemtl Cladding_Siding_White
vt -75.4242 0
v 166.281 7.80565 -81.173
vt -84.0997 8.08708
vt -87.1504 0
f 7/56/5 36/57/5 35/58/5

vt -75.4242 8.08708
f 36/57/5 7/56/5 8/59/5

v 166.281 9.60392 -81.173
vt -84.0997 9.95019
f 8/59/5 37/60/5 36/57/5

vt -75.4242 9.95019
f 37/60/5 8/59/5 9/61/5

v 166.281 22.3762 -84.1176
vt -87.1504 23.183
f 9/61/5 38/62/5 37/60/5

vt -75.4242 23.183
f 38/62/5 9/61/5 10/63/5

vt -107.138 75.4242
vn 0 -1 -0
vt -172.277 87.1504
vt -172.277 75.4242
f 11/64/7 38/65/7 10/66/7

v 103.41 22.3762 -84.1176
vt -107.138 87.1504
f 38/65/7 11/64/7 39/67/7

vt 75.4242 23.183
v 103.41 9.60392 -81.173
vt 84.0997 9.95019
vt 87.1504 23.183
f 11/68/2 40/69/2 39/70/2

vt 75.4242 9.95019
f 40/69/2 11/68/2 12/71/2

v 103.41 7.80565 -81.173
vt 84.0997 8.08708
f 12/71/2 41/72/2 40/69/2

vt 75.4242 8.08708
f 41/72/2 12/71/2 13/73/2

vt 87.1504 0
f 13/73/2 26/74/2 41/72/2

vt 75.4242 0
f 26/74/2 13/73/2 15/75/2

usemtl FrontColor
f 15/23/4 25/43/4 26/44/4

f 15/23/4 16/22/4 25/43/4

vn -2.04778e-016 -1 -5.52015e-016
f 16/22/8 24/42/8 25/43/8

v 63.8736 -1.44382e-015 -73.757
vt -2514.71 2903.82
f 24/42/8 16/22/8 42/76/8

f 42/76/4 23/41/4 24/42/4

v 63.8736 0 -74.247
vt -2514.71 2923.11
f 43/77/4 23/41/4 42/76/4

v 63.8736 0 -84.1726
vt -2514.71 3313.88
f 23/41/4 43/77/4 44/78/4

f 43/77/7 21/39/7 44/78/7

vt -2356.67 2923.11
f 18/79/7 21/39/7 43/77/7

f 21/39/7 18/79/7 19/37/7

f 22/40/7 44/78/7 21/39/7

f 44/78/7 22/40/7 23/41/7

usemtl Cladding_Siding_White
v 103.41 7.80565 -84.1176
vt 87.1504 8.08708
f 41/72/2 26/74/2 45/80/2

usemtl Translucent_Glass_Blue
vt 4071.24 0
v 110.91 7.80565 -84.1176
vt 4366.54 307.309
vt 4071.24 307.309
f 26/81/3 46/82/3 45/83/3

vt 4366.54 0
f 46/82/3 26/81/3 27/84/3

usemtl Wood_Floor_Dark
v 110.91 0 -82.814
vt -27.1699 0
vt -27.5976 6.40227
vt -27.5976 0
f 47/85/5 46/86/5 27/87/5

v 110.91 7.80565 -82.814
vt -27.1699 6.40227
f 46/86/5 47/85/5 48/88/5

vt 36.3878 0
v 111.676 7.80565 -82.814
vt 36.639 6.40227
vt 36.3878 6.40227
f 47/89/3 49/90/3 48/91/3

v 111.676 0 -82.814
vt 36.639 0
f 49/90/3 47/89/3 50/92/3

usemtl FrontColor
vt -4396.68 3260.39
vt -4366.54 3260.39
f 50/93/4 47/94/4 28/46/4

f 27/45/4 28/46/4 47/94/4

usemtl Wood_Floor_Dark
vt 27.5976 0
vt 27.1699 6.40227
vt 27.1699 0
f 28/95/2 49/96/2 50/97/2

v 111.676 7.80565 -84.1176
vt 27.5976 6.40227
f 49/96/2 28/95/2 51/98/2

usemtl Translucent_Glass_Blue
vt 4396.68 0
v 124.127 7.80565 -84.1176
vt 4886.88 307.309
vt 4396.68 307.309
f 28/99/3 52/100/3 51/101/3

vt 4886.88 0
f 52/100/3 28/99/3 29/102/3

usemtl Wood_Floor_Dark
v 124.127 0 -82.814
f 53/85/5 52/86/5 29/87/5

v 124.127 7.80565 -82.814
f 52/86/5 53/85/5 54/88/5

vt 40.724 0
v 124.882 7.80565 -82.814
vt 40.9717 6.40227
vt 40.724 6.40227
f 53/103/3 55/104/3 54/105/3

v 124.882 0 -82.814
vt 40.9717 0
f 55/104/3 53/103/3 56/106/3

usemtl FrontColor
vt -4916.61 3260.39
vt -4886.88 3260.39
f 56/107/4 53/108/4 30/48/4

f 29/47/4 30/48/4 53/108/4

usemtl Wood_Floor_Dark
f 30/95/2 55/96/2 56/97/2

v 124.882 7.80565 -84.1176
f 55/96/2 30/95/2 57/98/2

usemtl Translucent_Glass_Blue
vt 4916.61 0
v 140.523 7.80565 -84.1176
vt 5532.4 307.309
vt 4916.61 307.309
f 30/109/3 58/110/3 57/111/3

vt 5532.4 0
f 58/110/3 30/109/3 31/112/3

usemtl FrontColor
v 140.523 0 -82.814
vt -3260.39 0
vt -3311.72 307.309
vt -3311.72 0
f 59/113/5 58/114/5 31/115/5

v 140.523 7.80565 -82.814
vt -3260.39 307.309
f 58/114/5 59/113/5 60/116/5

v 141.193 7.80565 -82.814
vt 5558.78 307.309
f 59/112/3 61/117/3 60/110/3

v 141.193 0 -82.814
vt 5558.78 0
f 61/117/3 59/112/3 62/118/3

vt -5558.78 3260.39
vt -5532.4 3260.39
f 62/119/4 59/120/4 32/50/4

f 31/49/4 32/50/4 59/120/4

vt 3311.72 0
vt 3260.39 307.309
vt 3260.39 0
f 32/121/2 61/122/2 62/123/2

v 141.193 7.80565 -84.1176
vt 3311.72 307.309
f 61/122/2 32/121/2 63/124/2

usemtl Translucent_Glass_Blue
v 156.507 7.80565 -84.1176
vt 6161.7 307.309
f 32/118/3 64/125/3 63/117/3

vt 6161.7 0
f 64/125/3 32/118/3 33/126/3

usemtl FrontColor
v 156.507 0 -82.814
f 65/113/5 64/114/5 33/115/5

v 156.507 7.80565 -82.814
f 64/114/5 65/113/5 66/116/5

v 157.192 7.80565 -82.814
vt 6188.65 307.309
f 65/126/3 67/127/3 66/125/3

v 157.192 0 -82.814
vt 6188.65 0
f 67/127/3 65/126/3 68/128/3

vt -6188.65 3260.39
vt -6161.7 3260.39
f 68/129/4 65/130/4 34/52/4

f 33/51/4 34/52/4 65/130/4

f 34/121/2 67/122/2 68/123/2

v 157.192 7.80565 -84.1176
f 67/122/2 34/121/2 69/124/2

usemtl Translucent_Glass_Blue
v 166.281 7.80565 -84.1176
vt 6546.51 307.309
f 34/128/3 70/131/3 69/127/3

vt 6546.51 0
f 70/131/3 34/128/3 35/132/3

usemtl Cladding_Siding_White
vt -87.1504 8.08708
f 35/58/5 36/57/5 70/133/5

usemtl FrontColor
v 157.192 7.80565 -81.173
vt -6188.65 3195.79
vt -6546.51 3195.79
f 71/134/7 70/53/7 36/135/7

f 67/129/7 70/53/7 71/134/7

f 70/53/7 67/129/7 69/52/7

v 156.507 7.80565 -81.173
vt -6161.7 3195.79
f 72/136/7 67/129/7 71/134/7

f 67/129/7 72/136/7 66/130/7

f 72/136/7 64/51/7 66/130/7

v 141.193 7.80565 -81.173
vt -5558.78 3195.79
f 73/137/7 64/51/7 72/136/7

f 61/119/7 64/51/7 73/137/7

f 64/51/7 61/119/7 63/50/7

v 140.523 7.80565 -81.173
vt -5532.4 3195.79
f 74/138/7 61/119/7 73/137/7

f 61/119/7 74/138/7 60/120/7

f 74/138/7 58/49/7 60/120/7

v 124.882 7.80565 -81.173
vt -4916.61 3195.79
f 75/139/7 58/49/7 74/138/7

f 55/107/7 58/49/7 75/139/7

f 58/49/7 55/107/7 57/48/7

v 124.127 7.80565 -81.173
vt -4886.88 3195.79
f 76/140/7 55/107/7 75/139/7

f 55/107/7 76/140/7 54/108/7

f 76/140/7 52/47/7 54/108/7

v 111.676 7.80565 -81.173
vt -4396.68 3195.79
f 77/141/7 52/47/7 76/140/7

f 49/93/7 52/47/7 77/141/7

f 52/47/7 49/93/7 51/46/7

v 110.91 7.80565 -81.173
vt -4366.54 3195.79
f 78/142/7 49/93/7 77/141/7

f 49/93/7 78/142/7 48/94/7

f 78/142/7 46/45/7 48/94/7

vt -4071.24 3195.79
f 41/143/7 46/45/7 78/142/7

f 46/45/7 41/143/7 45/44/7

usemtl Wood_Floor_Dark
vt 54.5543 7.87723
vt 33.927 6.40227
f 78/91/3 37/144/3 41/145/3

f 77/90/3 37/144/3 78/91/3

f 76/105/3 37/144/3 77/90/3

f 75/104/3 37/144/3 76/105/3

vt 46.1033 6.40227
f 74/146/3 37/144/3 75/104/3

vt 46.3232 6.40227
f 73/147/3 37/144/3 74/146/3

vt 51.3475 6.40227
f 72/148/3 37/144/3 73/147/3

vt 51.5721 6.40227
f 71/149/3 37/144/3 72/148/3

vt 54.5543 6.40227
f 37/144/3 71/149/3 36/150/3

vt 33.927 7.87723
f 41/145/3 37/144/3 40/151/3

usemtl FrontColor
vt 6546.51 3195.79
v 103.41 9.60392 -84.1176
vt 4071.24 3311.72
vt 4071.24 3195.79
f 37/152/1 79/153/1 40/154/1

v 166.281 9.60392 -84.1176
vt 6546.51 3311.72
f 79/153/1 37/152/1 80/155/1

usemtl Cladding_Siding_White
vt -87.1504 9.95019
f 37/60/5 38/62/5 80/156/5

usemtl Translucent_Glass_Blue
vt 6546.51 880.953
vt 4071.24 378.107
vt 6546.51 378.107
f 38/157/3 79/158/3 80/159/3

vt 4071.24 880.953
f 79/158/3 38/157/3 39/160/3

usemtl Cladding_Siding_White
vt 87.1504 9.95019
f 39/70/2 40/69/2 79/161/2

